<mxfile host="seqgen" agent="seqgen" version="26.2.2">
  <diagram name="Diagram" id="test-1">
    <mxGraphModel dx="0" dy="0" grid="1" gridSize="10" guides="1" tooltips="1" connect="1" arrows="1" fold="1" page="0" pageScale="1" pageWidth="851" pageHeight="1100" background="#ffffff" math="0" shadow="0">
      <root>
        <mxCell id="0" />
        <mxCell id="1" parent="0" />
        <mxCell id="test-2" value="A" parent="1" style="shape=umlLifeline;perimeter=lifelinePerimeter;whiteSpace=wrap;html=1;container=1;dropTarget=0;collapsible=0;recursiveResize=0;outlineConnect=0;portConstraint=eastwest;newEdgeStyle={&quot;curved&quot;:0,&quot;rounded&quot;:0};size=40;" vertex="1">
          <mxGeometry x="0" y="0" width="160" height="500" as="geometry" />
        </mxCell>
        <mxCell id="test-3" value="B" parent="1" style="shape=umlLifeline;perimeter=lifelinePerimeter;whiteSpace=wrap;html=1;container=1;dropTarget=0;collapsible=0;recursiveResize=0;outlineConnect=0;portConstraint=eastwest;newEdgeStyle={&quot;curved&quot;:0,&quot;rounded&quot;:0};size=40;" vertex="1">
          <mxGeometry x="200" y="0" width="160" height="500" as="geometry" />
        </mxCell>
        <mxCell id="test-4" value="C" parent="1" style="shape=umlLifeline;perimeter=lifelinePerimeter;whiteSpace=wrap;html=1;container=1;dropTarget=0;collapsible=0;recursiveResize=0;outlineConnect=0;portConstraint=eastwest;newEdgeStyle={&quot;curved&quot;:0,&quot;rounded&quot;:0};size=40;" vertex="1">
          <mxGeometry x="400" y="0" width="160" height="500" as="geometry" />
        </mxCell>
        <mxCell id="test-5" value="" parent="test-2" style="html=1;points=[[0,0,0,0,5],[0,1,0,0,-5],[1,0,0,0,5],[1,1,0,0,-5]];perimeter=orthogonalPerimeter;outlineConnect=0;targetShapes=umlLifeline;portConstraint=eastwest;newEdgeStyle={&quot;curved&quot;:0,&quot;rounded&quot;:0};" vertex="1">
          <mxGeometry x="75.0" y="60" width="10" height="230" as="geometry" />
        </mxCell>
        <mxCell id="test-6" value="" parent="test-2" style="html=1;points=[[0,0,0,0,5],[0,1,0,0,-5],[1,0,0,0,5],[1,1,0,0,-5]];perimeter=orthogonalPerimeter;outlineConnect=0;targetShapes=umlLifeline;portConstraint=eastwest;newEdgeStyle={&quot;curved&quot;:0,&quot;rounded&quot;:0};" vertex="1">
          <mxGeometry x="80.0" y="80" width="10" height="20" as="geometry" />
        </mxCell>
        <mxCell id="test-7" value="self call" parent="1" style="html=1;curved=0;rounded=0;spacingLeft=2;align=left;verticalAlign=middle;endArrow=block;dashed=0;" edge="1" source="test-5" target="test-6">
          <mxGeometry relative="1" as="geometry">
            <mxPoint as="targetPoint" />
            <mxPoint as="sourcePoint" />
            <Array as="points">
              <mxPoint x="110.0" y="70" />
              <mxPoint x="110.0" y="90.0" />
            </Array>
          </mxGeometry>
        </mxCell>
        <mxCell id="test-8" value="" parent="test-2" style="html=1;points=[[0,0,0,0,5],[0,1,0,0,-5],[1,0,0,0,5],[1,1,0,0,-5]];perimeter=orthogonalPerimeter;outlineConnect=0;targetShapes=umlLifeline;portConstraint=eastwest;newEdgeStyle={&quot;curved&quot;:0,&quot;rounded&quot;:0};" vertex="1">
          <mxGeometry x="80.0" y="120" width="10" height="20" as="geometry" />
        </mxCell>
        <mxCell id="test-9" value="self call with&lt;br/&gt;multiple lines" parent="1" style="html=1;curved=0;rounded=0;spacingLeft=2;align=left;verticalAlign=middle;endArrow=block;dashed=0;" edge="1" source="test-5" target="test-8">
          <mxGeometry relative="1" as="geometry">
            <mxPoint as="targetPoint" />
            <mxPoint as="sourcePoint" />
            <Array as="points">
              <mxPoint x="110.0" y="110" />
              <mxPoint x="110.0" y="130.0" />
            </Array>
          </mxGeometry>
        </mxCell>
        <mxCell id="test-10" value="" parent="test-2" style="html=1;points=[[0,0,0,0,5],[0,1,0,0,-5],[1,0,0,0,5],[1,1,0,0,-5]];perimeter=orthogonalPerimeter;outlineConnect=0;targetShapes=umlLifeline;portConstraint=eastwest;newEdgeStyle={&quot;curved&quot;:0,&quot;rounded&quot;:0};" vertex="1">
          <mxGeometry x="80.0" y="150" width="10" height="50" as="geometry" />
        </mxCell>
        <mxCell id="test-11" value="" parent="test-2" style="html=1;points=[[0,0,0,0,5],[0,1,0,0,-5],[1,0,0,0,5],[1,1,0,0,-5]];perimeter=orthogonalPerimeter;outlineConnect=0;targetShapes=umlLifeline;portConstraint=eastwest;newEdgeStyle={&quot;curved&quot;:0,&quot;rounded&quot;:0};" vertex="1">
          <mxGeometry x="85.0" y="170" width="10" height="20" as="geometry" />
        </mxCell>
        <mxCell id="test-12" value="self call on&lt;br/&gt;stacked activation" parent="1" style="html=1;curved=0;rounded=0;spacingLeft=2;align=left;verticalAlign=middle;endArrow=block;dashed=0;" edge="1" source="test-10" target="test-11">
          <mxGeometry relative="1" as="geometry">
            <mxPoint as="targetPoint" />
            <mxPoint as="sourcePoint" />
            <Array as="points">
              <mxPoint x="115.0" y="160" />
              <mxPoint x="115.0" y="180.0" />
            </Array>
          </mxGeometry>
        </mxCell>
        <mxCell id="test-13" value="" parent="test-3" style="html=1;points=[[0,0,0,0,5],[0,1,0,0,-5],[1,0,0,0,5],[1,1,0,0,-5]];perimeter=orthogonalPerimeter;outlineConnect=0;targetShapes=umlLifeline;portConstraint=eastwest;newEdgeStyle={&quot;curved&quot;:0,&quot;rounded&quot;:0};" vertex="1">
          <mxGeometry x="75.0" y="210" width="10" height="80" as="geometry" />
        </mxCell>
        <mxCell id="test-14" value="" parent="test-3" style="html=1;points=[[0,0,0,0,5],[0,1,0,0,-5],[1,0,0,0,5],[1,1,0,0,-5]];perimeter=orthogonalPerimeter;outlineConnect=0;targetShapes=umlLifeline;portConstraint=eastwest;newEdgeStyle={&quot;curved&quot;:0,&quot;rounded&quot;:0};" vertex="1">
          <mxGeometry x="70.0" y="220" width="10" height="60" as="geometry" />
        </mxCell>
        <mxCell id="test-15" value="" parent="1" style="html=1;curved=0;rounded=0;align=center;verticalAlign=bottom;endArrow=block;dashed=0;entryX=0;entryY=0;entryDx=0;entryDy=5;" edge="1" source="test-5" target="test-14">
          <mxGeometry relative="1" as="geometry">
            <mxPoint as="sourcePoint" />
          </mxGeometry>
        </mxCell>
        <mxCell id="test-16" value="" parent="test-3" style="html=1;points=[[0,0,0,0,5],[0,1,0,0,-5],[1,0,0,0,5],[1,1,0,0,-5]];perimeter=orthogonalPerimeter;outlineConnect=0;targetShapes=umlLifeline;portConstraint=eastwest;newEdgeStyle={&quot;curved&quot;:0,&quot;rounded&quot;:0};" vertex="1">
          <mxGeometry x="65.0" y="245" width="10" height="20" as="geometry" />
        </mxCell>
        <mxCell id="test-17" value="self call on&lt;br/&gt;left side" parent="1" style="html=1;curved=0;rounded=0;spacingRight=2;align=right;verticalAlign=middle;endArrow=block;dashed=0;" edge="1" source="test-14" target="test-16">
          <mxGeometry relative="1" as="geometry">
            <mxPoint as="targetPoint" />
            <mxPoint as="sourcePoint" />
            <Array as="points">
              <mxPoint x="245.0" y="235" />
              <mxPoint x="245.0" y="255.0" />
            </Array>
          </mxGeometry>
        </mxCell>
        <mxCell id="test-18" value="" parent="1" style="html=1;curved=0;rounded=0;align=center;verticalAlign=bottom;endArrow=block;dashed=0;exitX=0;exitY=1;exitDx=0;exitDy=-5;" edge="1" source="test-14" target="test-5">
          <mxGeometry relative="1" as="geometry">
            <mxPoint as="targetPoint" />
          </mxGeometry>
        </mxCell>
        <mxCell id="test-19" value="" parent="test-2" style="html=1;points=[[0,0,0,0,5],[0,1,0,0,-5],[1,0,0,0,5],[1,1,0,0,-5]];perimeter=orthogonalPerimeter;outlineConnect=0;targetShapes=umlLifeline;portConstraint=eastwest;newEdgeStyle={&quot;curved&quot;:0,&quot;rounded&quot;:0};" vertex="1">
          <mxGeometry x="75.0" y="300" width="10" height="80" as="geometry" />
        </mxCell>
        <mxCell id="test-20" value="" parent="test-3" style="html=1;points=[[0,0,0,0,5],[0,1,0,0,-5],[1,0,0,0,5],[1,1,0,0,-5]];perimeter=orthogonalPerimeter;outlineConnect=0;targetShapes=umlLifeline;portConstraint=eastwest;newEdgeStyle={&quot;curved&quot;:0,&quot;rounded&quot;:0};" vertex="1">
          <mxGeometry x="75.0" y="310" width="10" height="60" as="geometry" />
        </mxCell>
        <mxCell id="test-21" value="message" parent="1" style="html=1;curved=0;rounded=0;align=center;verticalAlign=bottom;endArrow=block;dashed=0;entryX=0;entryY=0;entryDx=0;entryDy=5;" edge="1" source="test-19" target="test-20">
          <mxGeometry relative="1" as="geometry">
            <mxPoint as="sourcePoint" />
          </mxGeometry>
        </mxCell>
        <mxCell id="test-22" value="" parent="test-3" style="html=1;points=[[0,0,0,0,5],[0,1,0,0,-5],[1,0,0,0,5],[1,1,0,0,-5]];perimeter=orthogonalPerimeter;outlineConnect=0;targetShapes=umlLifeline;portConstraint=eastwest;newEdgeStyle={&quot;curved&quot;:0,&quot;rounded&quot;:0};" vertex="1">
          <mxGeometry x="80.0" y="335" width="10" height="20" as="geometry" />
        </mxCell>
        <mxCell id="test-23" value="message" parent="1" style="html=1;curved=0;rounded=0;spacingLeft=2;align=left;verticalAlign=middle;endArrow=block;dashed=0;" edge="1" source="test-20" target="test-22">
          <mxGeometry relative="1" as="geometry">
            <mxPoint as="targetPoint" />
            <mxPoint as="sourcePoint" />
            <Array as="points">
              <mxPoint x="310.0" y="325" />
              <mxPoint x="310.0" y="345.0" />
            </Array>
          </mxGeometry>
        </mxCell>
        <mxCell id="test-24" value="message" parent="1" style="html=1;curved=0;rounded=0;align=center;verticalAlign=bottom;endArrow=block;dashed=0;exitX=0;exitY=1;exitDx=0;exitDy=-5;" edge="1" source="test-20" target="test-19">
          <mxGeometry relative="1" as="geometry">
            <mxPoint as="targetPoint" />
          </mxGeometry>
        </mxCell>
        <mxCell id="test-25" value="" parent="test-4" style="html=1;points=[[0,0,0,0,5],[0,1,0,0,-5],[1,0,0,0,5],[1,1,0,0,-5]];perimeter=orthogonalPerimeter;outlineConnect=0;targetShapes=umlLifeline;portConstraint=eastwest;newEdgeStyle={&quot;curved&quot;:0,&quot;rounded&quot;:0};" vertex="1">
          <mxGeometry x="75.0" y="390" width="10" height="80" as="geometry" />
        </mxCell>
        <mxCell id="test-26" value="" parent="test-3" style="html=1;points=[[0,0,0,0,5],[0,1,0,0,-5],[1,0,0,0,5],[1,1,0,0,-5]];perimeter=orthogonalPerimeter;outlineConnect=0;targetShapes=umlLifeline;portConstraint=eastwest;newEdgeStyle={&quot;curved&quot;:0,&quot;rounded&quot;:0};" vertex="1">
          <mxGeometry x="75.0" y="400" width="10" height="60" as="geometry" />
        </mxCell>
        <mxCell id="test-27" value="message" parent="1" style="html=1;curved=0;rounded=0;align=center;verticalAlign=bottom;endArrow=block;dashed=0;entryX=1;entryY=0;entryDx=0;entryDy=5;" edge="1" source="test-25" target="test-26">
          <mxGeometry relative="1" as="geometry">
            <mxPoint as="sourcePoint" />
          </mxGeometry>
        </mxCell>
        <mxCell id="test-28" value="" parent="test-3" style="html=1;points=[[0,0,0,0,5],[0,1,0,0,-5],[1,0,0,0,5],[1,1,0,0,-5]];perimeter=orthogonalPerimeter;outlineConnect=0;targetShapes=umlLifeline;portConstraint=eastwest;newEdgeStyle={&quot;curved&quot;:0,&quot;rounded&quot;:0};" vertex="1">
          <mxGeometry x="80.0" y="425" width="10" height="20" as="geometry" />
        </mxCell>
        <mxCell id="test-29" value="message" parent="1" style="html=1;curved=0;rounded=0;spacingLeft=2;align=left;verticalAlign=middle;endArrow=block;dashed=0;" edge="1" source="test-26" target="test-28">
          <mxGeometry relative="1" as="geometry">
            <mxPoint as="targetPoint" />
            <mxPoint as="sourcePoint" />
            <Array as="points">
              <mxPoint x="310.0" y="415" />
              <mxPoint x="310.0" y="435.0" />
            </Array>
          </mxGeometry>
        </mxCell>
        <mxCell id="test-30" value="message" parent="1" style="html=1;curved=0;rounded=0;align=center;verticalAlign=bottom;endArrow=block;dashed=0;exitX=1;exitY=1;exitDx=0;exitDy=-5;" edge="1" source="test-26" target="test-25">
          <mxGeometry relative="1" as="geometry">
            <mxPoint as="targetPoint" />
          </mxGeometry>
        </mxCell>
      </root>
    </mxGraphModel>
  </diagram>
</mxfile>
